<?xml version="1.0" encoding="UTF-8"?>
<svg width="100pt" height="100pt" version="1.1" viewBox="0 0 100 100" xmlns="http://www.w3.org/2000/svg">
 <path d="m66 71h-20v6h20c6.0742 0 11-4.9258 11-11v-32c0-6.0742-4.9258-11-11-11h-32c-6.0742 0-11 4.9258-11 11v30.34c-0.042969 2.8633 1.6641 5.4609 4.3086 6.5625 2.6406 1.1016 5.6875 0.48438 7.6914-1.5625l20-20.102v11.762h6v-19c0-1.6562-1.3438-3-3-3h-19v6h11.762l-20 20.051c-0.28125 0.32812-0.73828 0.44141-1.1367 0.27734-0.40234-0.16016-0.65234-0.55859-0.625-0.98828v-30.34c0-2.7617 2.2383-5 5-5h32c1.3242 0 2.5977 0.52734 3.5352 1.4648s1.4648 2.2109 1.4648 3.5352v32c0 1.3242-0.52734 2.5977-1.4648 3.5352s-2.2109 1.4648-3.5352 1.4648z" fill="#6a717f"/>
</svg>
